<svg width="306" height="52" viewBox="0 0 306 52" fill="none" xmlns="http://www.w3.org/2000/svg">
<g clip-path="url(#clip0_592_22)">
<path d="M225 20C225 31.0457 216.046 40 205 40C193.954 40 185 31.0457 185 20C185 8.9543 193.954 0 205 0C216.046 0 225 8.9543 225 20ZM196.149 20C196.149 24.8881 200.112 28.8506 205 28.8506C209.888 28.8506 213.851 24.8881 213.851 20C213.851 15.1119 209.888 11.1494 205 11.1494C200.112 11.1494 196.149 15.1119 196.149 20Z" fill="#FF6CFF"/>
<path d="M8.58 27.22C6.13067 27.22 3.41733 27.0733 0.44 26.78V23.81C3.68133 24.03 6.10133 24.14 7.7 24.14C8.03733 24.14 8.30133 24.0447 8.492 23.854C8.69733 23.6487 8.8 23.3773 8.8 23.04V21.94C8.8 21.06 8.36 20.62 7.48 20.62H1.1V11.6H11.66V14.68H5.06V17.54H8.58C10.0173 17.54 11.0733 17.87 11.748 18.53C12.4227 19.1753 12.76 20.1653 12.76 21.5V23.04C12.76 24.4773 12.4227 25.5333 11.748 26.208C11.0733 26.8827 10.0173 27.22 8.58 27.22ZM16.4914 27L25.2914 11.6H28.5914L20.0114 27H16.4914ZM21.1114 16.77C21.1114 17.65 20.8694 18.332 20.3854 18.816C19.9161 19.2853 19.2414 19.52 18.3614 19.52H16.3814C15.5014 19.52 14.8194 19.2853 14.3354 18.816C13.8661 18.332 13.6314 17.65 13.6314 16.77V14.13C13.6314 13.25 13.8661 12.5753 14.3354 12.106C14.8194 11.622 15.5014 11.38 16.3814 11.38H18.3614C19.2414 11.38 19.9161 11.622 20.3854 12.106C20.8694 12.5753 21.1114 13.25 21.1114 14.13V16.77ZM18.4714 14.13C18.4714 13.6167 18.2147 13.36 17.7014 13.36H17.0414C16.5281 13.36 16.2714 13.6167 16.2714 14.13V16.77C16.2714 17.2833 16.5281 17.54 17.0414 17.54H17.7014C18.2147 17.54 18.4714 17.2833 18.4714 16.77V14.13ZM31.6714 24.47C31.6714 25.35 31.4294 26.032 30.9454 26.516C30.4761 26.9853 29.8014 27.22 28.9214 27.22H26.9414C26.0614 27.22 25.3794 26.9853 24.8954 26.516C24.4261 26.032 24.1914 25.35 24.1914 24.47V21.83C24.1914 20.95 24.4261 20.2753 24.8954 19.806C25.3794 19.322 26.0614 19.08 26.9414 19.08H28.9214C29.8014 19.08 30.4761 19.322 30.9454 19.806C31.4294 20.2753 31.6714 20.95 31.6714 21.83V24.47ZM29.0314 21.83C29.0314 21.3167 28.7747 21.06 28.2614 21.06H27.6014C27.0881 21.06 26.8314 21.3167 26.8314 21.83V24.47C26.8314 24.9833 27.0881 25.24 27.6014 25.24H28.2614C28.7747 25.24 29.0314 24.9833 29.0314 24.47V21.83ZM39.3748 20.84V17.76H48.3948V20.84H39.3748ZM59.7145 27H55.4245L61.2545 11.6H65.6545L71.4845 27H67.1945L66.2045 24.25H60.7045L59.7145 27ZM61.6945 21.39H65.2145L63.4545 16.22L61.6945 21.39ZM79.8437 27H71.9237V23.92H73.9037V14.68H71.9237V11.6H79.8437V14.68H77.8637V23.92H79.8437V27ZM81.822 11.6H91.062C92.602 11.6 93.7166 11.952 94.406 12.656C95.11 13.3453 95.462 14.46 95.462 16V17.98C95.462 19.1973 95.2566 20.1433 94.846 20.818C94.45 21.4927 93.812 21.94 92.932 22.16L95.682 27H91.392L88.862 22.38H85.782V27H81.822V11.6ZM91.502 16C91.502 15.12 91.062 14.68 90.182 14.68H85.782V19.3H90.182C91.062 19.3 91.502 18.86 91.502 17.98V16ZM106.236 11.6C107.893 11.6 109.147 12.0327 109.998 12.898C110.863 13.7487 111.296 15.0027 111.296 16.66V21.94C111.296 23.5973 110.863 24.8587 109.998 25.724C109.147 26.5747 107.893 27 106.236 27H97.6559V11.6H106.236ZM107.336 16.66C107.336 15.34 106.676 14.68 105.356 14.68H101.616V23.92H105.356C106.676 23.92 107.336 23.26 107.336 21.94V16.66ZM113.49 11.6H122.73C124.27 11.6 125.385 11.952 126.074 12.656C126.778 13.3453 127.13 14.46 127.13 16V17.98C127.13 19.1973 126.925 20.1433 126.514 20.818C126.118 21.4927 125.48 21.94 124.6 22.16L127.35 27H123.06L120.53 22.38H117.45V27H113.49V11.6ZM123.17 16C123.17 15.12 122.73 14.68 121.85 14.68H117.45V19.3H121.85C122.73 19.3 123.17 18.86 123.17 17.98V16ZM139.224 15.78C139.224 14.9 138.784 14.46 137.904 14.46H134.164C133.284 14.46 132.844 14.9 132.844 15.78V22.82C132.844 23.7 133.284 24.14 134.164 24.14H137.904C138.784 24.14 139.224 23.7 139.224 22.82V15.78ZM143.184 22.82C143.184 24.36 142.832 25.482 142.128 26.186C141.439 26.8753 140.324 27.22 138.784 27.22H133.284C131.744 27.22 130.622 26.8753 129.918 26.186C129.229 25.482 128.884 24.36 128.884 22.82V15.78C128.884 14.24 129.229 13.1253 129.918 12.436C130.622 11.732 131.744 11.38 133.284 11.38H138.784C140.324 11.38 141.439 11.732 142.128 12.436C142.832 13.1253 143.184 14.24 143.184 15.78V22.82ZM145.394 11.6H154.634C156.174 11.6 157.289 11.952 157.978 12.656C158.682 13.3453 159.034 14.46 159.034 16V18.2C159.034 19.74 158.682 20.862 157.978 21.566C157.289 22.2553 156.174 22.6 154.634 22.6H149.354V27H145.394V11.6ZM155.074 16C155.074 15.12 154.634 14.68 153.754 14.68H149.354V19.52H153.754C154.634 19.52 155.074 19.08 155.074 18.2V16ZM160.551 23.81C164.57 24.03 167.291 24.14 168.713 24.14C169.051 24.14 169.315 24.0447 169.505 23.854C169.711 23.6487 169.813 23.3773 169.813 23.04V21.06H164.753C163.213 21.06 162.091 20.7153 161.387 20.026C160.698 19.322 160.353 18.2 160.353 16.66V16C160.353 14.46 160.698 13.3453 161.387 12.656C162.091 11.952 163.213 11.6 164.753 11.6H172.475V14.68H165.633C164.753 14.68 164.313 15.12 164.313 16V16.44C164.313 17.32 164.753 17.76 165.633 17.76H169.593C171.031 17.76 172.087 18.0973 172.761 18.772C173.436 19.4467 173.773 20.5027 173.773 21.94V23.04C173.773 24.4773 173.436 25.5333 172.761 26.208C172.087 26.8827 171.031 27.22 169.593 27.22C168.845 27.22 168.053 27.2053 167.217 27.176L165.193 27.088C163.697 27.0147 162.15 26.912 160.551 26.78V23.81Z" fill="#F9F9F9"/>
</g>
<path d="M305 50.5781L276.343 21.9213C274.843 20.421 272.808 19.5781 270.686 19.5781H235" stroke="#F9F9F9" stroke-width="2" stroke-linecap="round" stroke-linejoin="round"/>
<defs>
<clipPath id="clip0_592_22">
<rect width="225" height="40" fill="white"/>
</clipPath>
</defs>
</svg>
