<svg width="337" height="54" viewBox="0 0 337 54" fill="none" xmlns="http://www.w3.org/2000/svg">
<g clip-path="url(#clip0_592_37)">
<path d="M124 33.5781C124 44.6238 115.046 53.5781 104 53.5781C92.9543 53.5781 84 44.6238 84 33.5781C84 22.5324 92.9543 13.5781 104 13.5781C115.046 13.5781 124 22.5324 124 33.5781ZM95.1494 33.5781C95.1494 38.4662 99.1119 42.4288 104 42.4288C108.888 42.4288 112.851 38.4662 112.851 33.5781C112.851 28.6901 108.888 24.7275 104 24.7275C99.1119 24.7275 95.1494 28.6901 95.1494 33.5781Z" fill="#57F287"/>
<path d="M147.53 41H135.32V25.6H147.53V28.68H139.28V31.65H145.77V34.73H139.28V37.92H147.53V41ZM161.165 40.78C157.894 41.0733 155.181 41.22 153.025 41.22C151.588 41.22 150.532 40.8827 149.857 40.208C149.182 39.5333 148.845 38.4773 148.845 37.04V30C148.845 28.46 149.19 27.3453 149.879 26.656C150.583 25.952 151.705 25.6 153.245 25.6H161.165V28.68H154.125C153.245 28.68 152.805 29.12 152.805 30V37.04C152.805 37.3773 152.9 37.6487 153.091 37.854C153.296 38.0447 153.553 38.14 153.861 38.14C154.169 38.14 154.506 38.14 154.873 38.14C155.24 38.1253 155.621 38.1107 156.017 38.096C156.413 38.0813 156.809 38.0667 157.205 38.052C157.616 38.0373 158.136 38.008 158.767 37.964C159.412 37.92 160.212 37.8687 161.165 37.81V40.78ZM172.827 29.78C172.827 28.9 172.387 28.46 171.507 28.46H167.767C166.887 28.46 166.447 28.9 166.447 29.78V36.82C166.447 37.7 166.887 38.14 167.767 38.14H171.507C172.387 38.14 172.827 37.7 172.827 36.82V29.78ZM176.787 36.82C176.787 38.36 176.435 39.482 175.731 40.186C175.042 40.8753 173.927 41.22 172.387 41.22H166.887C165.347 41.22 164.225 40.8753 163.521 40.186C162.832 39.482 162.487 38.36 162.487 36.82V29.78C162.487 28.24 162.832 27.1253 163.521 26.436C164.225 25.732 165.347 25.38 166.887 25.38H172.387C173.927 25.38 175.042 25.732 175.731 26.436C176.435 27.1253 176.787 28.24 176.787 29.78V36.82ZM178.536 37.81C182.554 38.03 185.275 38.14 186.698 38.14C187.035 38.14 187.299 38.0447 187.49 37.854C187.695 37.6487 187.798 37.3773 187.798 37.04V35.06H182.738C181.198 35.06 180.076 34.7153 179.372 34.026C178.682 33.322 178.338 32.2 178.338 30.66V30C178.338 28.46 178.682 27.3453 179.372 26.656C180.076 25.952 181.198 25.6 182.738 25.6H190.46V28.68H183.618C182.738 28.68 182.298 29.12 182.298 30V30.44C182.298 31.32 182.738 31.76 183.618 31.76H187.578C189.015 31.76 190.071 32.0973 190.746 32.772C191.42 33.4467 191.758 34.5027 191.758 35.94V37.04C191.758 38.4773 191.42 39.5333 190.746 40.208C190.071 40.8827 189.015 41.22 187.578 41.22C186.83 41.22 186.038 41.2053 185.202 41.176L183.178 41.088C181.682 41.0147 180.134 40.912 178.536 40.78V37.81ZM191.31 25.6H195.49L199.12 33.08L202.75 25.6H206.93L201.1 36.93V41H197.14V36.93L191.31 25.6ZM207.303 37.81C211.322 38.03 214.043 38.14 215.465 38.14C215.803 38.14 216.067 38.0447 216.257 37.854C216.463 37.6487 216.565 37.3773 216.565 37.04V35.06H211.505C209.965 35.06 208.843 34.7153 208.139 34.026C207.45 33.322 207.105 32.2 207.105 30.66V30C207.105 28.46 207.45 27.3453 208.139 26.656C208.843 25.952 209.965 25.6 211.505 25.6H219.227V28.68H212.385C211.505 28.68 211.065 29.12 211.065 30V30.44C211.065 31.32 211.505 31.76 212.385 31.76H216.345C217.783 31.76 218.839 32.0973 219.513 32.772C220.188 33.4467 220.525 34.5027 220.525 35.94V37.04C220.525 38.4773 220.188 39.5333 219.513 40.208C218.839 40.8827 217.783 41.22 216.345 41.22C215.597 41.22 214.805 41.2053 213.969 41.176L211.945 41.088C210.449 41.0147 208.902 40.912 207.303 40.78V37.81ZM228.888 41H224.928V28.68H220.308V25.6H233.508V28.68H228.888V41ZM247.26 41H235.05V25.6H247.26V28.68H239.01V31.65H245.5V34.73H239.01V37.92H247.26V41ZM262.215 32.42L259.135 37.92H256.055L252.975 32.42V41H249.015V25.6H253.195L257.595 33.74L261.995 25.6H266.175V41H262.215V32.42ZM274.76 34.84V31.76H283.78V34.84H274.76ZM303.349 30.44C303.349 31.6867 302.821 32.7647 301.765 33.674C301.443 33.9527 301.091 34.2313 300.709 34.51L295.979 37.92H303.349V41H291.469V36.82L299.389 31.1V30C299.389 29.12 298.949 28.68 298.069 28.68H291.909V25.6H298.949C300.489 25.6 301.604 25.952 302.293 26.656C302.997 27.3453 303.349 28.46 303.349 30V30.44ZM312.586 41.22C310.137 41.22 307.423 41.0733 304.446 40.78V37.81C307.687 38.03 310.107 38.14 311.706 38.14C312.043 38.14 312.307 38.0447 312.498 37.854C312.703 37.6487 312.806 37.3773 312.806 37.04V35.94C312.806 35.06 312.366 34.62 311.486 34.62H305.106V25.6H315.666V28.68H309.066V31.54H312.586C314.023 31.54 315.079 31.87 315.754 32.53C316.429 33.1753 316.766 34.1653 316.766 35.5V37.04C316.766 38.4773 316.429 39.5333 315.754 40.208C315.079 40.8827 314.023 41.22 312.586 41.22ZM320.497 41L329.297 25.6H332.597L324.017 41H320.497ZM325.117 30.77C325.117 31.65 324.875 32.332 324.391 32.816C323.922 33.2853 323.247 33.52 322.367 33.52H320.387C319.507 33.52 318.825 33.2853 318.341 32.816C317.872 32.332 317.637 31.65 317.637 30.77V28.13C317.637 27.25 317.872 26.5753 318.341 26.106C318.825 25.622 319.507 25.38 320.387 25.38H322.367C323.247 25.38 323.922 25.622 324.391 26.106C324.875 26.5753 325.117 27.25 325.117 28.13V30.77ZM322.477 28.13C322.477 27.6167 322.221 27.36 321.707 27.36H321.047C320.534 27.36 320.277 27.6167 320.277 28.13V30.77C320.277 31.2833 320.534 31.54 321.047 31.54H321.707C322.221 31.54 322.477 31.2833 322.477 30.77V28.13ZM335.677 38.47C335.677 39.35 335.435 40.032 334.951 40.516C334.482 40.9853 333.807 41.22 332.927 41.22H330.947C330.067 41.22 329.385 40.9853 328.901 40.516C328.432 40.032 328.197 39.35 328.197 38.47V35.83C328.197 34.95 328.432 34.2753 328.901 33.806C329.385 33.322 330.067 33.08 330.947 33.08H332.927C333.807 33.08 334.482 33.322 334.951 33.806C335.435 34.2753 335.677 34.95 335.677 35.83V38.47ZM333.037 35.83C333.037 35.3167 332.781 35.06 332.267 35.06H331.607C331.094 35.06 330.837 35.3167 330.837 35.83V38.47C330.837 38.9833 331.094 39.24 331.607 39.24H332.267C332.781 39.24 333.037 38.9833 333.037 38.47V35.83Z" fill="#F9F9F9"/>
</g>
<path d="M1 1.57812L27.6569 28.235C29.1571 29.7353 31.192 30.5781 33.3137 30.5781H69" stroke="#F9F9F9" stroke-width="2" stroke-linecap="round" stroke-linejoin="round"/>
<defs>
<clipPath id="clip0_592_37">
<rect width="253" height="40" fill="white" transform="translate(84 13.5781)"/>
</clipPath>
</defs>
</svg>
