<svg width="392" height="50" viewBox="0 0 392 50" fill="none" xmlns="http://www.w3.org/2000/svg">
<g clip-path="url(#clip0_592_17)">
<path d="M124 20C124 31.0457 115.046 40 104 40C92.9543 40 84 31.0457 84 20C84 8.9543 92.9543 0 104 0C115.046 0 124 8.9543 124 20ZM95.1494 20C95.1494 24.8881 99.1119 28.8506 104 28.8506C108.888 28.8506 112.851 24.8881 112.851 20C112.851 15.1119 108.888 11.1494 104 11.1494C99.1119 11.1494 95.1494 15.1119 95.1494 20Z" fill="#FFD056"/>
<path d="M135.32 11.6H144.56C146.1 11.6 147.215 11.952 147.904 12.656C148.608 13.3453 148.96 14.46 148.96 16V18.2C148.96 19.74 148.608 20.862 147.904 21.566C147.215 22.2553 146.1 22.6 144.56 22.6H139.28V27H135.32V11.6ZM145 16C145 15.12 144.56 14.68 143.68 14.68H139.28V19.52H143.68C144.56 19.52 145 19.08 145 18.2V16ZM160.839 11.6H164.799V22.82C164.799 24.36 164.447 25.482 163.743 26.186C163.054 26.8753 161.939 27.22 160.399 27.22H155.339C153.799 27.22 152.677 26.8753 151.973 26.186C151.284 25.482 150.939 24.36 150.939 22.82V11.6H154.899V22.82C154.899 23.7 155.339 24.14 156.219 24.14H159.519C160.399 24.14 160.839 23.7 160.839 22.82V11.6ZM167.439 11.6H176.239C177.676 11.6 178.732 11.93 179.407 12.59C180.082 13.2353 180.419 14.2253 180.419 15.56C180.419 16.44 180.228 17.1587 179.847 17.716C179.466 18.2587 178.996 18.64 178.439 18.86C179.627 19.1827 180.434 19.9747 180.859 21.236C181.006 21.6907 181.079 22.2187 181.079 22.82C181.079 24.2573 180.742 25.3133 180.067 25.988C179.392 26.6627 178.336 27 176.899 27H167.439V11.6ZM177.119 22.16C177.119 21.28 176.679 20.84 175.799 20.84H171.399V23.92H175.799C176.679 23.92 177.119 23.48 177.119 22.6V22.16ZM176.459 16C176.459 15.12 176.019 14.68 175.139 14.68H171.399V17.76H175.139C176.019 17.76 176.459 17.32 176.459 16.44V16ZM187.018 23.92H195.048V27H183.058V11.6H187.018V23.92ZM203.853 27H195.933V23.92H197.913V14.68H195.933V11.6H203.853V14.68H201.873V23.92H203.853V27ZM217.712 26.78C214.441 27.0733 211.728 27.22 209.572 27.22C208.134 27.22 207.078 26.8827 206.404 26.208C205.729 25.5333 205.392 24.4773 205.392 23.04V16C205.392 14.46 205.736 13.3453 206.426 12.656C207.13 11.952 208.252 11.6 209.792 11.6H217.712V14.68H210.672C209.792 14.68 209.352 15.12 209.352 16V23.04C209.352 23.3773 209.447 23.6487 209.638 23.854C209.843 24.0447 210.1 24.14 210.408 24.14C210.716 24.14 211.053 24.14 211.42 24.14C211.786 24.1253 212.168 24.1107 212.564 24.096C212.96 24.0813 213.356 24.0667 213.752 24.052C214.162 24.0373 214.683 24.008 215.314 23.964C215.959 23.92 216.758 23.8687 217.712 23.81V26.78ZM226.07 11.6H235.31C236.85 11.6 237.965 11.952 238.654 12.656C239.358 13.3453 239.71 14.46 239.71 16V17.98C239.71 19.1973 239.505 20.1433 239.094 20.818C238.698 21.4927 238.06 21.94 237.18 22.16L239.93 27H235.64L233.11 22.38H230.03V27H226.07V11.6ZM235.75 16C235.75 15.12 235.31 14.68 234.43 14.68H230.03V19.3H234.43C235.31 19.3 235.75 18.86 235.75 17.98V16ZM251.804 15.78C251.804 14.9 251.364 14.46 250.484 14.46H246.744C245.864 14.46 245.424 14.9 245.424 15.78V22.82C245.424 23.7 245.864 24.14 246.744 24.14H250.484C251.364 24.14 251.804 23.7 251.804 22.82V15.78ZM255.764 22.82C255.764 24.36 255.412 25.482 254.708 26.186C254.019 26.8753 252.904 27.22 251.364 27.22H245.864C244.324 27.22 243.202 26.8753 242.498 26.186C241.809 25.482 241.464 24.36 241.464 22.82V15.78C241.464 14.24 241.809 13.1253 242.498 12.436C243.202 11.732 244.324 11.38 245.864 11.38H251.364C252.904 11.38 254.019 11.732 254.708 12.436C255.412 13.1253 255.764 14.24 255.764 15.78V22.82ZM267.874 11.6H271.834V22.82C271.834 24.36 271.482 25.482 270.778 26.186C270.089 26.8753 268.974 27.22 267.434 27.22H262.374C260.834 27.22 259.712 26.8753 259.008 26.186C258.319 25.482 257.974 24.36 257.974 22.82V11.6H261.934V22.82C261.934 23.7 262.374 24.14 263.254 24.14H266.554C267.434 24.14 267.874 23.7 267.874 22.82V11.6ZM287.894 27H283.714L278.434 17.76V27H274.474V11.6H278.654L283.934 20.84V11.6H287.894V27ZM299.125 11.6C300.782 11.6 302.036 12.0327 302.887 12.898C303.752 13.7487 304.185 15.0027 304.185 16.66V21.94C304.185 23.5973 303.752 24.8587 302.887 25.724C302.036 26.5747 300.782 27 299.125 27H290.545V11.6H299.125ZM300.225 16.66C300.225 15.34 299.565 14.68 298.245 14.68H294.505V23.92H298.245C299.565 23.92 300.225 23.26 300.225 21.94V16.66ZM305.917 23.81C309.935 24.03 312.656 24.14 314.079 24.14C314.416 24.14 314.68 24.0447 314.871 23.854C315.076 23.6487 315.179 23.3773 315.179 23.04V21.06H310.119C308.579 21.06 307.457 20.7153 306.753 20.026C306.063 19.322 305.719 18.2 305.719 16.66V16C305.719 14.46 306.063 13.3453 306.753 12.656C307.457 11.952 308.579 11.6 310.119 11.6H317.841V14.68H310.999C310.119 14.68 309.679 15.12 309.679 16V16.44C309.679 17.32 310.119 17.76 310.999 17.76H314.959C316.396 17.76 317.452 18.0973 318.127 18.772C318.801 19.4467 319.139 20.5027 319.139 21.94V23.04C319.139 24.4773 318.801 25.5333 318.127 26.208C317.452 26.8827 316.396 27.22 314.959 27.22C314.211 27.22 313.419 27.2053 312.583 27.176L310.559 27.088C309.063 27.0147 307.515 26.912 305.917 26.78V23.81ZM327.053 20.84V17.76H336.073V20.84H327.053ZM351.902 23.92H343.762V20.84L349.042 11.6H353.442L348.162 20.84H351.902V17.54H355.862V20.84H357.402V23.92H355.862V27H351.902V23.92ZM367.531 15.78C367.531 14.9 367.091 14.46 366.211 14.46H363.791C362.911 14.46 362.471 14.9 362.471 15.78V22.82C362.471 23.7 362.911 24.14 363.791 24.14H366.211C367.091 24.14 367.531 23.7 367.531 22.82V15.78ZM371.491 22.82C371.491 24.36 371.139 25.482 370.435 26.186C369.746 26.8753 368.631 27.22 367.091 27.22H362.911C361.371 27.22 360.249 26.8753 359.545 26.186C358.856 25.482 358.511 24.36 358.511 22.82V15.78C358.511 14.24 358.856 13.1253 359.545 12.436C360.249 11.732 361.371 11.38 362.911 11.38H367.091C368.631 11.38 369.746 11.732 370.435 12.436C371.139 13.1253 371.491 14.24 371.491 15.78V22.82ZM375.669 27L384.469 11.6H387.769L379.189 27H375.669ZM380.289 16.77C380.289 17.65 380.047 18.332 379.563 18.816C379.094 19.2853 378.419 19.52 377.539 19.52H375.559C374.679 19.52 373.997 19.2853 373.513 18.816C373.044 18.332 372.809 17.65 372.809 16.77V14.13C372.809 13.25 373.044 12.5753 373.513 12.106C373.997 11.622 374.679 11.38 375.559 11.38H377.539C378.419 11.38 379.094 11.622 379.563 12.106C380.047 12.5753 380.289 13.25 380.289 14.13V16.77ZM377.649 14.13C377.649 13.6167 377.392 13.36 376.879 13.36H376.219C375.706 13.36 375.449 13.6167 375.449 14.13V16.77C375.449 17.2833 375.706 17.54 376.219 17.54H376.879C377.392 17.54 377.649 17.2833 377.649 16.77V14.13ZM390.849 24.47C390.849 25.35 390.607 26.032 390.123 26.516C389.654 26.9853 388.979 27.22 388.099 27.22H386.119C385.239 27.22 384.557 26.9853 384.073 26.516C383.604 26.032 383.369 25.35 383.369 24.47V21.83C383.369 20.95 383.604 20.2753 384.073 19.806C384.557 19.322 385.239 19.08 386.119 19.08H388.099C388.979 19.08 389.654 19.322 390.123 19.806C390.607 20.2753 390.849 20.95 390.849 21.83V24.47ZM388.209 21.83C388.209 21.3167 387.952 21.06 387.439 21.06H386.779C386.266 21.06 386.009 21.3167 386.009 21.83V24.47C386.009 24.9833 386.266 25.24 386.779 25.24H387.439C387.952 25.24 388.209 24.9833 388.209 24.47V21.83Z" fill="#F9F9F9"/>
</g>
<path d="M1.5 48.0781L27.6569 21.9213C29.1571 20.421 31.192 19.5781 33.3137 19.5781H69" stroke="#F9F9F9" stroke-width="2" stroke-linecap="round" stroke-linejoin="round"/>
<defs>
<clipPath id="clip0_592_17">
<rect width="308" height="40" fill="white" transform="translate(84)"/>
</clipPath>
</defs>
</svg>
