<svg width="305" height="49" viewBox="0 0 305 49" fill="none" xmlns="http://www.w3.org/2000/svg">
<g clip-path="url(#clip0_592_27)">
<path d="M227 20C227 31.0457 218.046 40 207 40C195.954 40 187 31.0457 187 20C187 8.9543 195.954 0 207 0C218.046 0 227 8.9543 227 20ZM198.149 20C198.149 24.8881 202.112 28.8506 207 28.8506C211.888 28.8506 215.851 24.8881 215.851 20C215.851 15.1119 211.888 11.1494 207 11.1494C202.112 11.1494 198.149 15.1119 198.149 20Z" fill="#F9F9F9"/>
<path d="M3.63 27V15.01L1.1 15.89L0 13.36L4.07 11.6H7.59V27H3.63ZM18.816 15.78C18.816 14.9 18.376 14.46 17.496 14.46H15.076C14.196 14.46 13.756 14.9 13.756 15.78V22.82C13.756 23.7 14.196 24.14 15.076 24.14H17.496C18.376 24.14 18.816 23.7 18.816 22.82V15.78ZM22.776 22.82C22.776 24.36 22.424 25.482 21.72 26.186C21.0307 26.8753 19.916 27.22 18.376 27.22H14.196C12.656 27.22 11.534 26.8753 10.83 26.186C10.1407 25.482 9.79602 24.36 9.79602 22.82V15.78C9.79602 14.24 10.1407 13.1253 10.83 12.436C11.534 11.732 12.656 11.38 14.196 11.38H18.376C19.916 11.38 21.0307 11.732 21.72 12.436C22.424 13.1253 22.776 14.24 22.776 15.78V22.82ZM26.9543 27L35.7543 11.6H39.0543L30.4743 27H26.9543ZM31.5743 16.77C31.5743 17.65 31.3323 18.332 30.8483 18.816C30.379 19.2853 29.7043 19.52 28.8243 19.52H26.8443C25.9643 19.52 25.2823 19.2853 24.7983 18.816C24.329 18.332 24.0943 17.65 24.0943 16.77V14.13C24.0943 13.25 24.329 12.5753 24.7983 12.106C25.2823 11.622 25.9643 11.38 26.8443 11.38H28.8243C29.7043 11.38 30.379 11.622 30.8483 12.106C31.3323 12.5753 31.5743 13.25 31.5743 14.13V16.77ZM28.9343 14.13C28.9343 13.6167 28.6776 13.36 28.1643 13.36H27.5043C26.991 13.36 26.7343 13.6167 26.7343 14.13V16.77C26.7343 17.2833 26.991 17.54 27.5043 17.54H28.1643C28.6776 17.54 28.9343 17.2833 28.9343 16.77V14.13ZM42.1343 24.47C42.1343 25.35 41.8923 26.032 41.4083 26.516C40.939 26.9853 40.2643 27.22 39.3843 27.22H37.4043C36.5243 27.22 35.8423 26.9853 35.3583 26.516C34.889 26.032 34.6543 25.35 34.6543 24.47V21.83C34.6543 20.95 34.889 20.2753 35.3583 19.806C35.8423 19.322 36.5243 19.08 37.4043 19.08H39.3843C40.2643 19.08 40.939 19.322 41.4083 19.806C41.8923 20.2753 42.1343 20.95 42.1343 21.83V24.47ZM39.4943 21.83C39.4943 21.3167 39.2376 21.06 38.7243 21.06H38.0643C37.551 21.06 37.2943 21.3167 37.2943 21.83V24.47C37.2943 24.9833 37.551 25.24 38.0643 25.24H38.7243C39.2376 25.24 39.4943 24.9833 39.4943 24.47V21.83ZM49.8377 20.84V17.76H58.8577V20.84H49.8377ZM66.9654 23.81C70.9841 24.03 73.7048 24.14 75.1274 24.14C75.4648 24.14 75.7288 24.0447 75.9194 23.854C76.1248 23.6487 76.2274 23.3773 76.2274 23.04V21.06H71.1674C69.6274 21.06 68.5054 20.7153 67.8014 20.026C67.1121 19.322 66.7674 18.2 66.7674 16.66V16C66.7674 14.46 67.1121 13.3453 67.8014 12.656C68.5054 11.952 69.6274 11.6 71.1674 11.6H78.8894V14.68H72.0474C71.1674 14.68 70.7274 15.12 70.7274 16V16.44C70.7274 17.32 71.1674 17.76 72.0474 17.76H76.0074C77.4448 17.76 78.5008 18.0973 79.1754 18.772C79.8501 19.4467 80.1874 20.5027 80.1874 21.94V23.04C80.1874 24.4773 79.8501 25.5333 79.1754 26.208C78.5008 26.8827 77.4448 27.22 76.0074 27.22C75.2594 27.22 74.4674 27.2053 73.6314 27.176L71.6074 27.088C70.1114 27.0147 68.5641 26.912 66.9654 26.78V23.81ZM88.55 27H84.59V14.68H79.97V11.6H93.17V14.68H88.55V27ZM95.9157 27H91.6257L97.4557 11.6H101.856L107.686 27H103.396L102.406 24.25H96.9057L95.9157 27ZM97.8957 21.39H101.416L99.6557 16.22L97.8957 21.39ZM120.235 26.78C116.964 27.0733 114.251 27.22 112.095 27.22C110.658 27.22 109.602 26.8827 108.927 26.208C108.252 25.5333 107.915 24.4773 107.915 23.04V16C107.915 14.46 108.26 13.3453 108.949 12.656C109.653 11.952 110.775 11.6 112.315 11.6H120.235V14.68H113.195C112.315 14.68 111.875 15.12 111.875 16V23.04C111.875 23.3773 111.97 23.6487 112.161 23.854C112.366 24.0447 112.623 24.14 112.931 24.14C113.239 24.14 113.576 24.14 113.943 24.14C114.31 24.1253 114.691 24.1107 115.087 24.096C115.483 24.0813 115.879 24.0667 116.275 24.052C116.686 24.0373 117.206 24.008 117.837 23.964C118.482 23.92 119.282 23.8687 120.235 23.81V26.78ZM125.958 27H121.998V11.6H125.958V17.65H127.938L131.37 11.6H135.55L131.238 19.19L135.528 27H131.348L127.938 20.73H125.958V27ZM144.125 27H136.205V23.92H138.185V14.68H136.205V11.6H144.125V14.68H142.145V23.92H144.125V27ZM159.523 27H155.343L150.063 17.76V27H146.103V11.6H150.283L155.563 20.84V11.6H159.523V27ZM175.374 26.67C171.942 27.0367 168.788 27.22 165.914 27.22C164.476 27.22 163.42 26.8827 162.746 26.208C162.071 25.5333 161.734 24.4773 161.734 23.04V16C161.734 14.46 162.078 13.3453 162.768 12.656C163.472 11.952 164.594 11.6 166.134 11.6H174.054V14.68H167.014C166.134 14.68 165.694 15.12 165.694 16V23.04C165.694 23.3773 165.789 23.6487 165.98 23.854C166.185 24.0447 166.456 24.14 166.794 24.14C168.48 24.14 170.02 24.1033 171.414 24.03V20.84H168.554V18.2H175.374V26.67Z" fill="#F9F9F9"/>
</g>
<path d="M304 47.5781L278.343 21.9213C276.843 20.421 274.808 19.5781 272.686 19.5781H237" stroke="#F9F9F9" stroke-width="2" stroke-linecap="round" stroke-linejoin="round"/>
<defs>
<clipPath id="clip0_592_27">
<rect width="227" height="40" fill="white"/>
</clipPath>
</defs>
</svg>
