<svg width="263" height="51" viewBox="0 0 263 51" fill="none" xmlns="http://www.w3.org/2000/svg">
<g clip-path="url(#clip0_592_32)">
<path d="M184 31C184 42.0457 175.046 51 164 51C152.954 51 144 42.0457 144 31C144 19.9543 152.954 11 164 11C175.046 11 184 19.9543 184 31ZM155.149 31C155.149 35.8881 159.112 39.8506 164 39.8506C168.888 39.8506 172.851 35.8881 172.851 31C172.851 26.1119 168.888 22.1494 164 22.1494C159.112 22.1494 155.149 26.1119 155.149 31Z" fill="#5B49EA"/>
<path d="M12.32 27.44C12.32 28.6867 11.792 29.7647 10.736 30.674C10.4133 30.9527 10.0613 31.2313 9.68 31.51L4.95 34.92H12.32V38H0.44V33.82L8.36 28.1V27C8.36 26.12 7.92 25.68 7.04 25.68H0.88V22.6H7.92C9.46 22.6 10.5747 22.952 11.264 23.656C11.968 24.3453 12.32 25.46 12.32 27V27.44ZM22.8766 26.78C22.8766 25.9 22.4366 25.46 21.5566 25.46H19.1366C18.2566 25.46 17.8166 25.9 17.8166 26.78V33.82C17.8166 34.7 18.2566 35.14 19.1366 35.14H21.5566C22.4366 35.14 22.8766 34.7 22.8766 33.82V26.78ZM26.8366 33.82C26.8366 35.36 26.4846 36.482 25.7806 37.186C25.0912 37.8753 23.9766 38.22 22.4366 38.22H18.2566C16.7166 38.22 15.5946 37.8753 14.8906 37.186C14.2012 36.482 13.8566 35.36 13.8566 33.82V26.78C13.8566 25.24 14.2012 24.1253 14.8906 23.436C15.5946 22.732 16.7166 22.38 18.2566 22.38H22.4366C23.9766 22.38 25.0912 22.732 25.7806 23.436C26.4846 24.1253 26.8366 25.24 26.8366 26.78V33.82ZM31.0148 38L39.8148 22.6H43.1148L34.5348 38H31.0148ZM35.6348 27.77C35.6348 28.65 35.3928 29.332 34.9088 29.816C34.4395 30.2853 33.7648 30.52 32.8848 30.52H30.9048C30.0248 30.52 29.3428 30.2853 28.8588 29.816C28.3895 29.332 28.1548 28.65 28.1548 27.77V25.13C28.1548 24.25 28.3895 23.5753 28.8588 23.106C29.3428 22.622 30.0248 22.38 30.9048 22.38H32.8848C33.7648 22.38 34.4395 22.622 34.9088 23.106C35.3928 23.5753 35.6348 24.25 35.6348 25.13V27.77ZM32.9948 25.13C32.9948 24.6167 32.7382 24.36 32.2248 24.36H31.5648C31.0515 24.36 30.7948 24.6167 30.7948 25.13V27.77C30.7948 28.2833 31.0515 28.54 31.5648 28.54H32.2248C32.7382 28.54 32.9948 28.2833 32.9948 27.77V25.13ZM46.1948 35.47C46.1948 36.35 45.9528 37.032 45.4688 37.516C44.9995 37.9853 44.3248 38.22 43.4448 38.22H41.4648C40.5848 38.22 39.9028 37.9853 39.4188 37.516C38.9495 37.032 38.7148 36.35 38.7148 35.47V32.83C38.7148 31.95 38.9495 31.2753 39.4188 30.806C39.9028 30.322 40.5848 30.08 41.4648 30.08H43.4448C44.3248 30.08 44.9995 30.322 45.4688 30.806C45.9528 31.2753 46.1948 31.95 46.1948 32.83V35.47ZM43.5548 32.83C43.5548 32.3167 43.2982 32.06 42.7848 32.06H42.1248C41.6115 32.06 41.3548 32.3167 41.3548 32.83V35.47C41.3548 35.9833 41.6115 36.24 42.1248 36.24H42.7848C43.2982 36.24 43.5548 35.9833 43.5548 35.47V32.83ZM53.8983 31.84V28.76H62.9183V31.84H53.8983ZM78.968 38H75.008V25.68H70.388V22.6H83.588V25.68H78.968V38ZM97.3405 38H85.1305V22.6H97.3405V25.68H89.0905V28.65H95.5805V31.73H89.0905V34.92H97.3405V38ZM101.845 38H97.5554L103.385 22.6H107.785L113.615 38H109.325L108.335 35.25H102.835L101.845 38ZM103.825 32.39H107.345L105.585 27.22L103.825 32.39ZM127.915 29.42L124.835 34.92H121.755L118.675 29.42V38H114.715V22.6H118.895L123.295 30.74L127.695 22.6H131.875V38H127.915V29.42Z" fill="#F9F9F9"/>
</g>
<path d="M262 1.57812L235.343 28.235C233.843 29.7353 231.808 30.5781 229.686 30.5781H194" stroke="#F9F9F9" stroke-width="2" stroke-linecap="round" stroke-linejoin="round"/>
<defs>
<clipPath id="clip0_592_32">
<rect width="184" height="40" fill="white" transform="translate(0 11)"/>
</clipPath>
</defs>
</svg>
